<svg width="24" height="25" viewBox="0 0 24 25" fill="none" xmlns="http://www.w3.org/2000/svg">
<path d="M22.5005 12.7331C22.5005 11.8698 22.4291 11.2398 22.2744 10.5864H12.2148V14.483H18.1196C18.0006 15.4514 17.3577 16.9097 15.9291 17.8897L15.9091 18.0202L19.0897 20.4349L19.3101 20.4564C21.3338 18.6247 22.5005 15.9297 22.5005 12.7331" fill="#4285F4"/>
<path d="M12.215 23.0001C15.1078 23.0001 17.5363 22.0667 19.3102 20.4567L15.9292 17.89C15.0245 18.5083 13.8102 18.94 12.215 18.94C9.38167 18.94 6.97693 17.1083 6.11971 14.5767L5.99406 14.5871L2.68681 17.0955L2.64355 17.2133C4.40543 20.6433 8.02448 23.0001 12.215 23.0001Z" fill="#34A853"/>
<path d="M6.11997 14.5767C5.89379 13.9234 5.76289 13.2233 5.76289 12.5C5.76289 11.7767 5.89379 11.0767 6.10807 10.4234L6.10208 10.2842L2.75337 7.7356L2.64381 7.78667C1.91765 9.21002 1.50098 10.8084 1.50098 12.5C1.50098 14.1917 1.91765 15.79 2.64381 17.2133L6.11997 14.5767" fill="#FBBC05"/>
<path d="M12.215 6.05997C14.2269 6.05997 15.584 6.91163 16.3579 7.62335L19.3817 4.73C17.5246 3.03834 15.1078 2 12.215 2C8.02451 2 4.40544 4.35665 2.64355 7.78662L6.10783 10.4233C6.97696 7.89166 9.38171 6.05997 12.215 6.05997" fill="#EB4335"/>
</svg>
