<svg width="20" height="20" viewBox="0 0 20 20" fill="none" xmlns="http://www.w3.org/2000/svg">
<path d="M12.5 17.5002V10.8336C12.5 10.6126 12.4122 10.4006 12.2559 10.2443C12.0996 10.088 11.8877 10.0002 11.6667 10.0002H8.33333C8.11232 10.0002 7.90036 10.088 7.74408 10.2443C7.5878 10.4006 7.5 10.6126 7.5 10.8336V17.5002M2.5 8.33357C2.49994 8.09113 2.55278 7.85159 2.65482 7.63167C2.75687 7.41175 2.90566 7.21673 3.09083 7.06024L8.92417 2.06024C9.22499 1.80599 9.60613 1.6665 10 1.6665C10.3939 1.6665 10.775 1.80599 11.0758 2.06024L16.9092 7.06024C17.0943 7.21673 17.2431 7.41175 17.3452 7.63167C17.4472 7.85159 17.5001 8.09113 17.5 8.33357V15.8336C17.5 16.2756 17.3244 16.6995 17.0118 17.0121C16.6993 17.3246 16.2754 17.5002 15.8333 17.5002H4.16667C3.72464 17.5002 3.30072 17.3246 2.98816 17.0121C2.67559 16.6995 2.5 16.2756 2.5 15.8336V8.33357Z" stroke="#4B4040" stroke-width="1.66667" stroke-linecap="round" stroke-linejoin="round"/>
</svg>
