<svg width="20" height="20" viewBox="0 0 20 20" fill="none" xmlns="http://www.w3.org/2000/svg">
<g clip-path="url(#clip0_1031_11603)">
<path d="M8.33341 12.2165V13.5715C8.33027 13.857 8.25382 14.1369 8.1114 14.3844C7.96898 14.6319 7.76536 14.8387 7.52008 14.9848C6.99937 15.3705 6.57578 15.8723 6.28299 16.4504C5.99019 17.0285 5.83626 17.6669 5.83341 18.3148M11.6667 12.2165V13.5715C11.6699 13.857 11.7463 14.1369 11.8888 14.3844C12.0312 14.6319 12.2348 14.8387 12.4801 14.9848C13.0008 15.3705 13.4244 15.8723 13.7172 16.4504C14.01 17.0285 14.1639 17.6669 14.1667 18.3148M15.0001 7.49984H16.2501C16.8026 7.49984 17.3325 7.28034 17.7232 6.88964C18.1139 6.49894 18.3334 5.96904 18.3334 5.4165C18.3334 4.86397 18.1139 4.33407 17.7232 3.94336C17.3325 3.55266 16.8026 3.33317 16.2501 3.33317H15.0001M15.0001 7.49984C15.0001 8.82592 14.4733 10.0977 13.5356 11.0354C12.5979 11.9731 11.3262 12.4998 10.0001 12.4998C8.674 12.4998 7.40223 11.9731 6.46455 11.0354C5.52687 10.0977 5.00008 8.82592 5.00008 7.49984M15.0001 7.49984V2.49984C15.0001 2.27882 14.9123 2.06686 14.756 1.91058C14.5997 1.7543 14.3878 1.6665 14.1667 1.6665H5.83341C5.6124 1.6665 5.40044 1.7543 5.24416 1.91058C5.08788 2.06686 5.00008 2.27882 5.00008 2.49984V7.49984M3.33341 18.3332H16.6667M5.00008 7.49984H3.75008C3.19755 7.49984 2.66764 7.28034 2.27694 6.88964C1.88624 6.49894 1.66675 5.96904 1.66675 5.4165C1.66675 4.86397 1.88624 4.33407 2.27694 3.94336C2.66764 3.55266 3.19755 3.33317 3.75008 3.33317H5.00008" stroke="#4B4040" stroke-width="1.66667" stroke-linecap="round" stroke-linejoin="round"/>
</g>
<defs>
<clipPath id="clip0_1031_11603">
<rect width="20" height="20" fill="white"/>
</clipPath>
</defs>
</svg>
