<svg width="20" height="20" viewBox="0 0 20 20" fill="none" xmlns="http://www.w3.org/2000/svg">
<path d="M11.6666 1.6665V4.99984C11.6666 5.44186 11.8422 5.86579 12.1547 6.17835C12.4673 6.49091 12.8912 6.6665 13.3333 6.6665H16.6666M8.33325 7.49984H6.66659M13.3333 10.8332H6.66659M13.3333 14.1665H6.66659M12.4999 1.6665H4.99992C4.55789 1.6665 4.13397 1.8421 3.82141 2.15466C3.50885 2.46722 3.33325 2.89114 3.33325 3.33317V16.6665C3.33325 17.1085 3.50885 17.5325 3.82141 17.845C4.13397 18.1576 4.55789 18.3332 4.99992 18.3332H14.9999C15.4419 18.3332 15.8659 18.1576 16.1784 17.845C16.491 17.5325 16.6666 17.1085 16.6666 16.6665V5.83317L12.4999 1.6665Z" stroke="#4B4040" stroke-width="1.66667" stroke-linecap="round" stroke-linejoin="round"/>
</svg>
