<svg width="20" height="20" viewBox="0 0 20 20" fill="none" xmlns="http://www.w3.org/2000/svg">
<g clip-path="url(#clip0_1031_11591)">
<path d="M5.00008 18.3332V3.33317C5.00008 2.89114 5.17568 2.46722 5.48824 2.15466C5.8008 1.8421 6.22472 1.6665 6.66675 1.6665H13.3334C13.7754 1.6665 14.1994 1.8421 14.5119 2.15466C14.8245 2.46722 15.0001 2.89114 15.0001 3.33317V18.3332M5.00008 18.3332H15.0001M5.00008 18.3332H3.33341C2.89139 18.3332 2.46746 18.1576 2.1549 17.845C1.84234 17.5325 1.66675 17.1085 1.66675 16.6665V11.6665C1.66675 11.2245 1.84234 10.8006 2.1549 10.488C2.46746 10.1754 2.89139 9.99984 3.33341 9.99984H5.00008M15.0001 18.3332H16.6667C17.1088 18.3332 17.5327 18.1576 17.8453 17.845C18.1578 17.5325 18.3334 17.1085 18.3334 16.6665V9.1665C18.3334 8.72448 18.1578 8.30055 17.8453 7.98799C17.5327 7.67543 17.1088 7.49984 16.6667 7.49984H15.0001M8.33341 4.99984H11.6667M8.33341 8.33317H11.6667M8.33341 11.6665H11.6667M8.33341 14.9998H11.6667" stroke="#4B4040" stroke-width="1.66667" stroke-linecap="round" stroke-linejoin="round"/>
</g>
<defs>
<clipPath id="clip0_1031_11591">
<rect width="20" height="20" fill="white"/>
</clipPath>
</defs>
</svg>
