<svg width="20" height="20" viewBox="0 0 20 20" fill="none" xmlns="http://www.w3.org/2000/svg">
<path d="M13.3334 17.5V15.8333C13.3334 14.9493 12.9822 14.1014 12.3571 13.4763C11.732 12.8512 10.8841 12.5 10.0001 12.5H5.00008C4.11603 12.5 3.26818 12.8512 2.64306 13.4763C2.01794 14.1014 1.66675 14.9493 1.66675 15.8333V17.5M13.3334 2.60667C14.0482 2.79197 14.6812 3.20939 15.1331 3.79339C15.5851 4.37738 15.8302 5.09491 15.8302 5.83333C15.8302 6.57176 15.5851 7.28928 15.1331 7.87328C14.6812 8.45728 14.0482 8.87469 13.3334 9.06M18.3334 17.5V15.8333C18.3329 15.0948 18.087 14.3773 17.6346 13.7936C17.1821 13.2099 16.5485 12.793 15.8334 12.6083M10.8334 5.83333C10.8334 7.67428 9.34103 9.16667 7.50008 9.16667C5.65913 9.16667 4.16675 7.67428 4.16675 5.83333C4.16675 3.99238 5.65913 2.5 7.50008 2.5C9.34103 2.5 10.8334 3.99238 10.8334 5.83333Z" stroke="#4B4040" stroke-width="1.66667" stroke-linecap="round" stroke-linejoin="round"/>
</svg>
